<svg width="600" height="200" viewBox="0 0 600 200" fill="none" xmlns="http://www.w3.org/2000/svg">
<rect width="600" height="200" fill="black"/>
<path d="M151.864 107.584L151.8 103.872L118.136 108.224L115.896 76.992H126.328L126.264 79.744L161.72 76.864L159.096 107.584H151.864ZM126.264 80.768L126.136 86.208L134.072 88.128L133.688 83.392H140.856L126.264 80.768ZM151.288 85.248L143.864 83.904L143.288 90.432L151.48 92.416L151.288 85.248ZM151.48 93.824L142.968 94.016L142.328 101.376L151.736 102.464L151.48 93.824ZM134.456 94.208L126.008 94.336L125.88 99.52L134.968 100.544L134.456 94.208ZM140.92 118.784L137.72 107.008L138.232 106.496L150.264 112.512L140.92 118.784ZM158.072 127.616L156.024 109.568L156.792 109.184L167.928 123.136L158.072 127.616ZM123.896 130.176L124.536 109.568H134.712L132.472 122.176L148.088 120.64L150.52 114.688H151.48L154.488 129.6L123.896 130.176ZM110.264 121.088L120.824 110.4L121.528 110.784L118.264 128.448L110.264 121.088ZM182.2 129.728L178.168 85.184L189.048 84.928L189.688 114.624L206.84 111.488L206.904 112L182.2 129.728ZM220.344 118.656L215.416 88.384L216.056 88.064L231.928 113.664L220.344 118.656ZM282.616 132.736L282.488 125.952L251.448 128.896L251.384 132.736H244.472L241.4 106.304H251.64L251.512 119.616L263.16 121.408L262.456 101.312L245.496 104.768L243.832 80.768H254.072L253.176 95.104L262.264 95.488L261.56 75.2H272.44L271.736 95.936L280.824 96.32L279.672 82.432H289.912L288.376 103.872H281.464L280.952 97.6L271.608 99.456L270.84 122.624L282.424 124.416L282.104 107.584H292.344L289.528 132.736H282.616ZM338.168 126.08C340.856 123.435 343.032 120.853 344.696 118.336C346.36 115.776 347.555 113.451 348.28 111.36C349.048 109.227 349.432 107.477 349.432 106.112C349.432 104.235 349.069 102.379 348.344 100.544C347.619 98.7093 346.339 97.0453 344.504 95.552C341.517 98.9653 338.765 102.037 336.248 104.768C333.773 107.499 331.277 110.016 328.76 112.32C326.285 114.624 323.533 116.885 320.504 119.104C317.859 121.024 315.533 122.453 313.528 123.392C311.565 124.288 309.88 124.736 308.472 124.736C306.765 124.736 305.507 124.096 304.696 122.816C303.885 121.493 303.48 119.595 303.48 117.12C303.48 114.731 303.864 111.808 304.632 108.352C305.101 106.133 305.955 103.936 307.192 101.76C308.429 99.5413 309.901 97.4507 311.608 95.488C313.357 93.4827 315.213 91.712 317.176 90.176C319.139 88.64 321.101 87.4453 323.064 86.592C325.027 85.696 326.84 85.248 328.504 85.248C331.619 85.248 334.669 85.632 337.656 86.4C340.685 87.168 343.523 88.2347 346.168 89.6C348.813 90.9227 351.139 92.48 353.144 94.272C355.149 96.064 356.707 98.0053 357.816 100.096C358.968 102.144 359.544 104.256 359.544 106.432C359.544 107.627 359.224 109.035 358.584 110.656C357.944 112.277 356.856 114.005 355.32 115.84C353.784 117.675 351.651 119.531 348.92 121.408C346.232 123.285 342.84 125.077 338.744 126.784L338.168 126.08ZM344.056 95.168C341.837 93.4187 339.341 92.0107 336.568 90.944C333.795 89.8773 331.128 89.344 328.568 89.344C327.032 89.344 325.411 89.9627 323.704 91.2C321.997 92.3947 320.355 93.9947 318.776 96C317.197 98.0053 315.832 100.181 314.68 102.528C313.571 104.875 312.845 107.2 312.504 109.504C312.376 110.315 312.312 110.997 312.312 111.552C312.312 113.088 312.845 113.856 313.912 113.856C314.637 113.856 315.768 113.493 317.304 112.768C321.016 110.976 325.155 108.608 329.72 105.664C334.285 102.677 339.064 99.1787 344.056 95.168ZM408.44 99.584L408.376 94.528L374.008 100.864L371.576 76.288H381.752V79.04L417.976 76.288L415.544 99.584H408.44ZM408.312 83.712L381.752 80.256V83.392L408.312 87.488V83.712ZM408.376 88.64L381.688 89.664V92.8L408.376 93.504V88.64ZM369.016 132.096V121.92L393.272 123.392L392.952 118.272L377.976 119.488V111.04L392.696 112.704L392.44 108.48L381.496 107.52L369.784 117.504L369.144 117.12L375.16 100.928L386.936 102.848L382.712 106.432L392.248 105.28L391.864 98.176H402.744L402.424 104.064L418.488 102.08V110.656L402.104 109.248L401.848 113.728L417.016 115.392V116.288L401.656 117.568L401.336 123.84L422.904 125.12V126.016L369.016 132.096ZM476.92 97.088L476.024 88.448L442.04 85.376L441.848 96.512H434.68L431.864 78.784H442.104L442.04 83.84L455.16 82.368L453.88 75.2H464.12L462.904 81.472L486.264 78.784L484.088 97.088H476.92ZM459 105.472L459.64 89.216H468.536L466.296 98.56L473.08 97.024L474.104 92.8H475L478.072 104.832L459 105.472ZM437.88 104.704L437.368 104.192L447.48 89.28L458.232 92.352L437.88 104.704ZM434.424 131.456V121.92L454.84 123.392L453.816 113.664L438.328 115.648V106.368L480.44 109.312V110.272L457.4 113.216H463.992L462.84 124.032L484.984 125.632V126.528L434.424 131.456Z" fill="white"/>
</svg>
